<svg xmlns="http://www.w3.org/2000/svg" viewBox="0 0 1280 620"><defs><linearGradient id="g" x1="0" x2="1"><stop stop-color="#a78bfa"/><stop offset=".5" stop-color="#22d3ee"/><stop offset="1" stop-color="#34d399"/></linearGradient><style>.t{font-family:Consolas,monospace}.f{animation:f 4s ease-in-out infinite}@keyframes f{50%{transform:translateY(-8px)}}.p{animation:p 2s infinite}@keyframes p{50%{opacity:.25}}.bar{animation:b 3s ease-in-out infinite alternate}@keyframes b{to{width:315px}}</style></defs><rect width="1280" height="620" rx="24" fill="#0b0d17"/><rect x="1" y="1" width="1278" height="618" rx="23" fill="none" stroke="url(#g)" stroke-opacity=".55"/><text x="420" y="52" class="t" font-size="13" fill="#a78bfa" letter-spacing="2.2">// DEVELOPER ID + DASHBOARD</text><g class="f"><rect x="60" y="85" width="315" height="455" rx="22" fill="#111425" stroke="#262a42"/><circle cx="217" cy="180" r="72" fill="#0a0f1d" stroke="url(#g)" stroke-width="2"/><circle cx="217" cy="180" r="58" fill="#1f2937"/><text x="217" y="185" text-anchor="middle" fill="#e2e8f0" font-family="Arial" font-size="34" font-weight="700">SS</text><circle cx="278" cy="122" r="7" fill="#34d399" class="p"/><text x="217" y="318" text-anchor="middle" fill="#eceef6" font-family="Arial" font-size="27" font-weight="700">Sangam Singh</text><text x="217" y="343" text-anchor="middle" class="t" font-size="12" fill="#a78bfa" letter-spacing="1.6">AI • ML • DATA • FULL-STACK</text><line x1="95" y1="370" x2="340" y2="370" stroke="#262a42"/><text x="95" y="397" class="t" font-size="10" fill="#8d93ab" letter-spacing="1.6">BASE</text><text x="95" y="418" class="t" font-size="14" fill="#eceef6">VADODARA, INDIA</text><text x="95" y="455" class="t" font-size="10" fill="#8d93ab" letter-spacing="1.6">STATUS</text><text x="95" y="478" class="t" font-size="14" fill="#34d399">● BUILDING / LEARNING</text><text x="95" y="508" class="t" font-size="11" fill="#64748b">github.com/sangamsingh18</text></g><g><text x="420" y="105" class="t" font-size="11" fill="#8d93ab" letter-spacing="1.6">PROFILE METRICS</text><rect x="420" y="126" width="185" height="100" rx="16" fill="#ffffff" fill-opacity=".03" stroke="#262a42"/><text x="448" y="173" class="t" font-size="35" fill="#eceef6">600+</text><text x="448" y="198" class="t" font-size="11" fill="#8d93ab">DSA PROBLEMS</text><rect x="620" y="126" width="185" height="100" rx="16" fill="#ffffff" fill-opacity=".03" stroke="#262a42"/><text x="648" y="173" class="t" font-size="35" fill="#eceef6">1700+</text><text x="648" y="198" class="t" font-size="11" fill="#8d93ab">LEETCODE PEAK</text><rect x="820" y="126" width="185" height="100" rx="16" fill="#ffffff" fill-opacity=".03" stroke="#262a42"/><text x="848" y="173" class="t" font-size="35" fill="#eceef6">8.25</text><text x="848" y="198" class="t" font-size="11" fill="#8d93ab">CGPA / 10</text><rect x="1020" y="126" width="198" height="100" rx="16" fill="#ffffff" fill-opacity=".03" stroke="#262a42"/><text x="1048" y="173" class="t" font-size="35" fill="#eceef6">2027</text><text x="1048" y="198" class="t" font-size="11" fill="#8d93ab">EXPECTED GRAD</text></g><rect x="420" y="252" width="386" height="288" rx="16" fill="#ffffff" fill-opacity=".03" stroke="#262a42"/><text x="448" y="286" class="t" font-size="11" fill="#8d93ab" letter-spacing="1.6">CORE STACK</text><text x="448" y="326" fill="#eceef6" font-family="Arial" font-size="16">Python • C++ • JavaScript • SQL</text><text x="448" y="356" fill="#eceef6" font-family="Arial" font-size="16">React • Node.js • FastAPI</text><text x="448" y="386" fill="#eceef6" font-family="Arial" font-size="16">Pandas • NumPy • Scikit-learn</text><text x="448" y="416" fill="#eceef6" font-family="Arial" font-size="16">TensorFlow • Keras • PyTorch</text><text x="448" y="446" fill="#eceef6" font-family="Arial" font-size="16">MongoDB • SQL • AWS</text><rect x="448" y="477" width="300" height="8" rx="4" fill="#1e293b"/><rect class="bar" x="448" y="477" width="250" height="8" rx="4" fill="url(#g)"/><rect x="826" y="252" width="392" height="288" rx="16" fill="#ffffff" fill-opacity=".03" stroke="#262a42"/><text x="854" y="286" class="t" font-size="11" fill="#8d93ab" letter-spacing="1.6">CURRENT BUILDS</text><text x="854" y="326" fill="#eceef6" font-family="Arial" font-size="16">Datalytics AI</text><text x="1150" y="326" text-anchor="end" class="t" font-size="11" fill="#34d399">ML / AUTO ML</text><text x="854" y="366" fill="#eceef6" font-family="Arial" font-size="16">ApnaCoach</text><text x="1150" y="366" text-anchor="end" class="t" font-size="11" fill="#22d3ee">GENAI</text><text x="854" y="406" fill="#eceef6" font-family="Arial" font-size="16">InsightRAG</text><text x="1150" y="406" text-anchor="end" class="t" font-size="11" fill="#a78bfa">RAG / LLM</text><text x="854" y="446" fill="#eceef6" font-family="Arial" font-size="16">SyncTYPE</text><text x="1150" y="446" text-anchor="end" class="t" font-size="11" fill="#fbbf24">EXTENSION</text><text x="854" y="486" fill="#eceef6" font-family="Arial" font-size="16">Healthcare Smart OPD</text><text x="1150" y="486" text-anchor="end" class="t" font-size="11" fill="#f472b6">AI HEALTHCARE</text></svg>