<svg xmlns="http://www.w3.org/2000/svg" width="1280" height="900" viewBox="0 0 1280 900">
<defs>
<linearGradient id="bg" x1="0" y1="0" x2="1" y2="1"><stop stop-color="#070a12"/><stop offset=".5" stop-color="#101528"/><stop offset="1" stop-color="#090d18"/></linearGradient>
<linearGradient id="line" x1="0" x2="1"><stop stop-color="#8b5cf6"/><stop offset=".5" stop-color="#22d3ee"/><stop offset="1" stop-color="#34d399"/></linearGradient>
<filter id="glow"><feGaussianBlur stdDeviation="5" result="b"/><feMerge><feMergeNode in="b"/><feMergeNode in="SourceGraphic"/></feMerge></filter>
<style>.h{font:700 27px Arial,sans-serif}.m{font:12px Consolas,monospace;letter-spacing:1.6px}.t{font:700 14px Arial,sans-serif}.s{font:12px Arial,sans-serif}.muted{fill:#8992aa}</style>
</defs>
<rect width="1280" height="900" rx="28" fill="url(#bg)"/>
<rect x="24" y="24" width="1232" height="852" rx="24" fill="none" stroke="url(#line)" stroke-opacity=".42"/>
<circle cx="1175" cy="58" r="5" fill="#34d399" filter="url(#glow)"/><text x="1205" y="63" class="m" fill="#34d399" text-anchor="end">STACK // ONLINE</text>
<text x="58" y="64" class="m" fill="#a78bfa">// TECHNOLOGY STACK</text>
<text x="58" y="104" class="h" fill="#eef2ff">Production toolkit</text>
<text x="58" y="130" class="s muted">Resume-derived technologies • grouped by engineering domain • logo-marked for fast scanning</text>

<g transform="translate(58,158)">
<rect width="566" height="142" rx="20" fill="#0c1121" stroke="#29304a"/>
<circle cx="27" cy="28" r="7" fill="#3776AB" filter="url(#glow)"/>
<text x="47" y="33" class="m" fill="#eef2ff">PROGRAMMING</text>
<g transform="translate(20,58)"><rect width="98" height="42" rx="11" fill="#121a2b" stroke="#202a42"/><circle cx="21" cy="21" r="13" fill="#3776AB" opacity=".18"/><text x="21" y="25" text-anchor="middle" font-family="Arial" font-size="8" font-weight="700" fill="#eef2ff">PY</text><text x="42" y="25" font-family="Arial" font-size="9" fill="#dbe4ff">Python</text></g><g transform="translate(128,58)"><rect width="98" height="42" rx="11" fill="#121a2b" stroke="#202a42"/><circle cx="21" cy="21" r="13" fill="#3776AB" opacity=".18"/><text x="21" y="25" text-anchor="middle" font-family="Arial" font-size="8" font-weight="700" fill="#eef2ff">C++</text><text x="42" y="25" font-family="Arial" font-size="9" fill="#dbe4ff">C++</text></g><g transform="translate(236,58)"><rect width="98" height="42" rx="11" fill="#121a2b" stroke="#202a42"/><circle cx="21" cy="21" r="13" fill="#3776AB" opacity=".18"/><text x="21" y="25" text-anchor="middle" font-family="Arial" font-size="8" font-weight="700" fill="#eef2ff">JS</text><text x="42" y="25" font-family="Arial" font-size="9" fill="#dbe4ff">JavaScript</text></g><g transform="translate(344,58)"><rect width="98" height="42" rx="11" fill="#121a2b" stroke="#202a42"/><circle cx="21" cy="21" r="13" fill="#3776AB" opacity=".18"/><text x="21" y="25" text-anchor="middle" font-family="Arial" font-size="8" font-weight="700" fill="#eef2ff">SQL</text><text x="42" y="25" font-family="Arial" font-size="9" fill="#dbe4ff">SQL</text></g><g transform="translate(452,58)"><rect width="98" height="42" rx="11" fill="#121a2b" stroke="#202a42"/><circle cx="21" cy="21" r="13" fill="#3776AB" opacity=".18"/><text x="21" y="25" text-anchor="middle" font-family="Arial" font-size="8" font-weight="700" fill="#eef2ff">JV</text><text x="42" y="25" font-family="Arial" font-size="9" fill="#dbe4ff">Java</text></g>
</g><g transform="translate(654,158)">
<rect width="566" height="142" rx="20" fill="#0c1121" stroke="#29304a"/>
<circle cx="27" cy="28" r="7" fill="#22c55e" filter="url(#glow)"/>
<text x="47" y="33" class="m" fill="#eef2ff">DATA SCIENCE & ML</text>
<g transform="translate(20,58)"><rect width="98" height="42" rx="11" fill="#121a2b" stroke="#202a42"/><circle cx="21" cy="21" r="13" fill="#22c55e" opacity=".18"/><text x="21" y="25" text-anchor="middle" font-family="Arial" font-size="8" font-weight="700" fill="#eef2ff">PD</text><text x="42" y="25" font-family="Arial" font-size="9" fill="#dbe4ff">Pandas</text></g><g transform="translate(128,58)"><rect width="98" height="42" rx="11" fill="#121a2b" stroke="#202a42"/><circle cx="21" cy="21" r="13" fill="#22c55e" opacity=".18"/><text x="21" y="25" text-anchor="middle" font-family="Arial" font-size="8" font-weight="700" fill="#eef2ff">NP</text><text x="42" y="25" font-family="Arial" font-size="9" fill="#dbe4ff">NumPy</text></g><g transform="translate(236,58)"><rect width="98" height="42" rx="11" fill="#121a2b" stroke="#202a42"/><circle cx="21" cy="21" r="13" fill="#22c55e" opacity=".18"/><text x="21" y="25" text-anchor="middle" font-family="Arial" font-size="8" font-weight="700" fill="#eef2ff">SK</text><text x="42" y="25" font-family="Arial" font-size="9" fill="#dbe4ff">Scikit-learn</text></g><g transform="translate(344,58)"><rect width="98" height="42" rx="11" fill="#121a2b" stroke="#202a42"/><circle cx="21" cy="21" r="13" fill="#22c55e" opacity=".18"/><text x="21" y="25" text-anchor="middle" font-family="Arial" font-size="8" font-weight="700" fill="#eef2ff">EDA</text><text x="42" y="25" font-family="Arial" font-size="9" fill="#dbe4ff">EDA</text></g><g transform="translate(452,58)"><rect width="98" height="42" rx="11" fill="#121a2b" stroke="#202a42"/><circle cx="21" cy="21" r="13" fill="#22c55e" opacity=".18"/><text x="21" y="25" text-anchor="middle" font-family="Arial" font-size="8" font-weight="700" fill="#eef2ff">FE</text><text x="42" y="25" font-family="Arial" font-size="9" fill="#dbe4ff">Feature Engineering</text></g>
</g><g transform="translate(58,323)">
<rect width="566" height="142" rx="20" fill="#0c1121" stroke="#29304a"/>
<circle cx="27" cy="28" r="7" fill="#ef4444" filter="url(#glow)"/>
<text x="47" y="33" class="m" fill="#eef2ff">DEEP LEARNING</text>
<g transform="translate(20,58)"><rect width="98" height="42" rx="11" fill="#121a2b" stroke="#202a42"/><circle cx="21" cy="21" r="13" fill="#ef4444" opacity=".18"/><text x="21" y="25" text-anchor="middle" font-family="Arial" font-size="8" font-weight="700" fill="#eef2ff">TF</text><text x="42" y="25" font-family="Arial" font-size="9" fill="#dbe4ff">TensorFlow</text></g><g transform="translate(128,58)"><rect width="98" height="42" rx="11" fill="#121a2b" stroke="#202a42"/><circle cx="21" cy="21" r="13" fill="#ef4444" opacity=".18"/><text x="21" y="25" text-anchor="middle" font-family="Arial" font-size="8" font-weight="700" fill="#eef2ff">K</text><text x="42" y="25" font-family="Arial" font-size="9" fill="#dbe4ff">Keras</text></g><g transform="translate(236,58)"><rect width="98" height="42" rx="11" fill="#121a2b" stroke="#202a42"/><circle cx="21" cy="21" r="13" fill="#ef4444" opacity=".18"/><text x="21" y="25" text-anchor="middle" font-family="Arial" font-size="8" font-weight="700" fill="#eef2ff">PT</text><text x="42" y="25" font-family="Arial" font-size="9" fill="#dbe4ff">PyTorch</text></g><g transform="translate(344,58)"><rect width="98" height="42" rx="11" fill="#121a2b" stroke="#202a42"/><circle cx="21" cy="21" r="13" fill="#ef4444" opacity=".18"/><text x="21" y="25" text-anchor="middle" font-family="Arial" font-size="8" font-weight="700" fill="#eef2ff">CV</text><text x="42" y="25" font-family="Arial" font-size="9" fill="#dbe4ff">OpenCV</text></g><g transform="translate(452,58)"><rect width="98" height="42" rx="11" fill="#121a2b" stroke="#202a42"/><circle cx="21" cy="21" r="13" fill="#ef4444" opacity=".18"/><text x="21" y="25" text-anchor="middle" font-family="Arial" font-size="8" font-weight="700" fill="#eef2ff">AI</text><text x="42" y="25" font-family="Arial" font-size="9" fill="#dbe4ff">Computer Vision</text></g>
</g><g transform="translate(654,323)">
<rect width="566" height="142" rx="20" fill="#0c1121" stroke="#29304a"/>
<circle cx="27" cy="28" r="7" fill="#a855f7" filter="url(#glow)"/>
<text x="47" y="33" class="m" fill="#eef2ff">GENAI / RAG</text>
<g transform="translate(20,58)"><rect width="98" height="42" rx="11" fill="#121a2b" stroke="#202a42"/><circle cx="21" cy="21" r="13" fill="#a855f7" opacity=".18"/><text x="21" y="25" text-anchor="middle" font-family="Arial" font-size="8" font-weight="700" fill="#eef2ff">LLM</text><text x="42" y="25" font-family="Arial" font-size="9" fill="#dbe4ff">LLMs</text></g><g transform="translate(128,58)"><rect width="98" height="42" rx="11" fill="#121a2b" stroke="#202a42"/><circle cx="21" cy="21" r="13" fill="#a855f7" opacity=".18"/><text x="21" y="25" text-anchor="middle" font-family="Arial" font-size="8" font-weight="700" fill="#eef2ff">LC</text><text x="42" y="25" font-family="Arial" font-size="9" fill="#dbe4ff">LangChain</text></g><g transform="translate(236,58)"><rect width="98" height="42" rx="11" fill="#121a2b" stroke="#202a42"/><circle cx="21" cy="21" r="13" fill="#a855f7" opacity=".18"/><text x="21" y="25" text-anchor="middle" font-family="Arial" font-size="8" font-weight="700" fill="#eef2ff">RAG</text><text x="42" y="25" font-family="Arial" font-size="9" fill="#dbe4ff">RAG</text></g><g transform="translate(344,58)"><rect width="98" height="42" rx="11" fill="#121a2b" stroke="#202a42"/><circle cx="21" cy="21" r="13" fill="#a855f7" opacity=".18"/><text x="21" y="25" text-anchor="middle" font-family="Arial" font-size="8" font-weight="700" fill="#eef2ff">CH</text><text x="42" y="25" font-family="Arial" font-size="9" fill="#dbe4ff">ChromaDB</text></g><g transform="translate(452,58)"><rect width="98" height="42" rx="11" fill="#121a2b" stroke="#202a42"/><circle cx="21" cy="21" r="13" fill="#a855f7" opacity=".18"/><text x="21" y="25" text-anchor="middle" font-family="Arial" font-size="8" font-weight="700" fill="#eef2ff">PE</text><text x="42" y="25" font-family="Arial" font-size="9" fill="#dbe4ff">Prompt Engineering</text></g>
</g><g transform="translate(58,488)">
<rect width="566" height="142" rx="20" fill="#0c1121" stroke="#29304a"/>
<circle cx="27" cy="28" r="7" fill="#22d3ee" filter="url(#glow)"/>
<text x="47" y="33" class="m" fill="#eef2ff">WEB / BACKEND</text>
<g transform="translate(20,58)"><rect width="98" height="42" rx="11" fill="#121a2b" stroke="#202a42"/><circle cx="21" cy="21" r="13" fill="#22d3ee" opacity=".18"/><text x="21" y="25" text-anchor="middle" font-family="Arial" font-size="8" font-weight="700" fill="#eef2ff">R</text><text x="42" y="25" font-family="Arial" font-size="9" fill="#dbe4ff">React</text></g><g transform="translate(128,58)"><rect width="98" height="42" rx="11" fill="#121a2b" stroke="#202a42"/><circle cx="21" cy="21" r="13" fill="#22d3ee" opacity=".18"/><text x="21" y="25" text-anchor="middle" font-family="Arial" font-size="8" font-weight="700" fill="#eef2ff">N</text><text x="42" y="25" font-family="Arial" font-size="9" fill="#dbe4ff">Node.js</text></g><g transform="translate(236,58)"><rect width="98" height="42" rx="11" fill="#121a2b" stroke="#202a42"/><circle cx="21" cy="21" r="13" fill="#22d3ee" opacity=".18"/><text x="21" y="25" text-anchor="middle" font-family="Arial" font-size="8" font-weight="700" fill="#eef2ff">EX</text><text x="42" y="25" font-family="Arial" font-size="9" fill="#dbe4ff">Express.js</text></g><g transform="translate(344,58)"><rect width="98" height="42" rx="11" fill="#121a2b" stroke="#202a42"/><circle cx="21" cy="21" r="13" fill="#22d3ee" opacity=".18"/><text x="21" y="25" text-anchor="middle" font-family="Arial" font-size="8" font-weight="700" fill="#eef2ff">API</text><text x="42" y="25" font-family="Arial" font-size="9" fill="#dbe4ff">FastAPI</text></g><g transform="translate(452,58)"><rect width="98" height="42" rx="11" fill="#121a2b" stroke="#202a42"/><circle cx="21" cy="21" r="13" fill="#22d3ee" opacity=".18"/><text x="21" y="25" text-anchor="middle" font-family="Arial" font-size="8" font-weight="700" fill="#eef2ff">REST</text><text x="42" y="25" font-family="Arial" font-size="9" fill="#dbe4ff">REST APIs</text></g>
</g><g transform="translate(654,488)">
<rect width="566" height="142" rx="20" fill="#0c1121" stroke="#29304a"/>
<circle cx="27" cy="28" r="7" fill="#f59e0b" filter="url(#glow)"/>
<text x="47" y="33" class="m" fill="#eef2ff">DATABASES</text>
<g transform="translate(20,58)"><rect width="98" height="42" rx="11" fill="#121a2b" stroke="#202a42"/><circle cx="21" cy="21" r="13" fill="#f59e0b" opacity=".18"/><text x="21" y="25" text-anchor="middle" font-family="Arial" font-size="8" font-weight="700" fill="#eef2ff">MDB</text><text x="42" y="25" font-family="Arial" font-size="9" fill="#dbe4ff">MongoDB</text></g><g transform="translate(128,58)"><rect width="98" height="42" rx="11" fill="#121a2b" stroke="#202a42"/><circle cx="21" cy="21" r="13" fill="#f59e0b" opacity=".18"/><text x="21" y="25" text-anchor="middle" font-family="Arial" font-size="8" font-weight="700" fill="#eef2ff">SQL</text><text x="42" y="25" font-family="Arial" font-size="9" fill="#dbe4ff">SQL</text></g><g transform="translate(236,58)"><rect width="98" height="42" rx="11" fill="#121a2b" stroke="#202a42"/><circle cx="21" cy="21" r="13" fill="#f59e0b" opacity=".18"/><text x="21" y="25" text-anchor="middle" font-family="Arial" font-size="8" font-weight="700" fill="#eef2ff">DB</text><text x="42" y="25" font-family="Arial" font-size="9" fill="#dbe4ff">Relational DB</text></g><g transform="translate(344,58)"><rect width="98" height="42" rx="11" fill="#121a2b" stroke="#202a42"/><circle cx="21" cy="21" r="13" fill="#f59e0b" opacity=".18"/><text x="21" y="25" text-anchor="middle" font-family="Arial" font-size="8" font-weight="700" fill="#eef2ff">SB</text><text x="42" y="25" font-family="Arial" font-size="9" fill="#dbe4ff">Supabase</text></g><g transform="translate(452,58)"><rect width="98" height="42" rx="11" fill="#121a2b" stroke="#202a42"/><circle cx="21" cy="21" r="13" fill="#f59e0b" opacity=".18"/><text x="21" y="25" text-anchor="middle" font-family="Arial" font-size="8" font-weight="700" fill="#eef2ff">DM</text><text x="42" y="25" font-family="Arial" font-size="9" fill="#dbe4ff">Data Modeling</text></g>
</g><g transform="translate(58,653)">
<rect width="566" height="142" rx="20" fill="#0c1121" stroke="#29304a"/>
<circle cx="27" cy="28" r="7" fill="#60a5fa" filter="url(#glow)"/>
<text x="47" y="33" class="m" fill="#eef2ff">CLOUD / DEVOPS</text>
<g transform="translate(20,58)"><rect width="98" height="42" rx="11" fill="#121a2b" stroke="#202a42"/><circle cx="21" cy="21" r="13" fill="#60a5fa" opacity=".18"/><text x="21" y="25" text-anchor="middle" font-family="Arial" font-size="8" font-weight="700" fill="#eef2ff">AWS</text><text x="42" y="25" font-family="Arial" font-size="9" fill="#dbe4ff">AWS</text></g><g transform="translate(128,58)"><rect width="98" height="42" rx="11" fill="#121a2b" stroke="#202a42"/><circle cx="21" cy="21" r="13" fill="#60a5fa" opacity=".18"/><text x="21" y="25" text-anchor="middle" font-family="Arial" font-size="8" font-weight="700" fill="#eef2ff">DK</text><text x="42" y="25" font-family="Arial" font-size="9" fill="#dbe4ff">Docker</text></g><g transform="translate(236,58)"><rect width="98" height="42" rx="11" fill="#121a2b" stroke="#202a42"/><circle cx="21" cy="21" r="13" fill="#60a5fa" opacity=".18"/><text x="21" y="25" text-anchor="middle" font-family="Arial" font-size="8" font-weight="700" fill="#eef2ff">GIT</text><text x="42" y="25" font-family="Arial" font-size="9" fill="#dbe4ff">Git</text></g><g transform="translate(344,58)"><rect width="98" height="42" rx="11" fill="#121a2b" stroke="#202a42"/><circle cx="21" cy="21" r="13" fill="#60a5fa" opacity=".18"/><text x="21" y="25" text-anchor="middle" font-family="Arial" font-size="8" font-weight="700" fill="#eef2ff">GH</text><text x="42" y="25" font-family="Arial" font-size="9" fill="#dbe4ff">GitHub</text></g><g transform="translate(452,58)"><rect width="98" height="42" rx="11" fill="#121a2b" stroke="#202a42"/><circle cx="21" cy="21" r="13" fill="#60a5fa" opacity=".18"/><text x="21" y="25" text-anchor="middle" font-family="Arial" font-size="8" font-weight="700" fill="#eef2ff">JUP</text><text x="42" y="25" font-family="Arial" font-size="9" fill="#dbe4ff">Jupyter Notebook</text></g>
</g><g transform="translate(654,653)">
<rect width="566" height="142" rx="20" fill="#0c1121" stroke="#29304a"/>
<circle cx="27" cy="28" r="7" fill="#ec4899" filter="url(#glow)"/>
<text x="47" y="33" class="m" fill="#eef2ff">ANALYTICS / BI</text>
<g transform="translate(20,58)"><rect width="98" height="42" rx="11" fill="#121a2b" stroke="#202a42"/><circle cx="21" cy="21" r="13" fill="#ec4899" opacity=".18"/><text x="21" y="25" text-anchor="middle" font-family="Arial" font-size="8" font-weight="700" fill="#eef2ff">BI</text><text x="42" y="25" font-family="Arial" font-size="9" fill="#dbe4ff">Power BI</text></g><g transform="translate(128,58)"><rect width="98" height="42" rx="11" fill="#121a2b" stroke="#202a42"/><circle cx="21" cy="21" r="13" fill="#ec4899" opacity=".18"/><text x="21" y="25" text-anchor="middle" font-family="Arial" font-size="8" font-weight="700" fill="#eef2ff">XL</text><text x="42" y="25" font-family="Arial" font-size="9" fill="#dbe4ff">MS Excel</text></g><g transform="translate(236,58)"><rect width="98" height="42" rx="11" fill="#121a2b" stroke="#202a42"/><circle cx="21" cy="21" r="13" fill="#ec4899" opacity=".18"/><text x="21" y="25" text-anchor="middle" font-family="Arial" font-size="8" font-weight="700" fill="#eef2ff">GS</text><text x="42" y="25" font-family="Arial" font-size="9" fill="#dbe4ff">Google Sheets</text></g><g transform="translate(344,58)"><rect width="98" height="42" rx="11" fill="#121a2b" stroke="#202a42"/><circle cx="21" cy="21" r="13" fill="#ec4899" opacity=".18"/><text x="21" y="25" text-anchor="middle" font-family="Arial" font-size="8" font-weight="700" fill="#eef2ff">PLY</text><text x="42" y="25" font-family="Arial" font-size="9" fill="#dbe4ff">Plotly</text></g><g transform="translate(452,58)"><rect width="98" height="42" rx="11" fill="#121a2b" stroke="#202a42"/><circle cx="21" cy="21" r="13" fill="#ec4899" opacity=".18"/><text x="21" y="25" text-anchor="middle" font-family="Arial" font-size="8" font-weight="700" fill="#eef2ff">MPL</text><text x="42" y="25" font-family="Arial" font-size="9" fill="#dbe4ff">Matplotlib / Seaborn</text></g>
</g>
<g transform="translate(58,818)"><text x="0" y="0" class="m" fill="#67e8f9">&gt; SIGNATURE</text><text x="126" y="0" font-family="cursive" font-size="27" font-style="italic" font-weight="700" fill="#eef2ff">Sangam Singh</text><line x1="126" y1="7" x2="305" y2="7" stroke="#a78bfa" stroke-width="1"/></g>
</svg>